PathFileType	4	(X/Y/Z)	S1_nor_slow_left.trc
DataRate	CameraRate	NumFrames	NumMarkers	Units	OrigDataRate	OrigDataStartFrame	OrigNumFrames
250.00	250.00	6	18	mm	250.00	10783	12323
Frame#	Time	c7	r_should	l_should	clavicle	r_upa	r_elb_l	r_elb_m	r_low	r_wri_l	r_wri_m	r_met	l_upa	l_elb_l	l_elb_m	l_low	l_wri_l	l_wri_m	l_met
	X1	Y1	Z1	X2	Y2	Z2	X3	Y3	Z3	X4	Y4	Z4	X5	Y5	Z5	X6	Y6	Z6	X7	Y7	Z7	X8	Y8	Z8	X9	Y9	Z9	X10	Y10	Z10	X11	Y11	Z11	X12	Y12	Z12	X13	Y13	Z13	X14	Y14	Z14	X15	Y15	Z15	X16	Y16	Z16	X17	Y17	Z17	X18	Y18	Z18
10783	43.12800	846.03467	1421.77734	83.36870	915.40381	1360.04370	268.51596	887.82794	1349.13855	-104.28910	982.67981	1301.02747	74.68801	896.60406	1164.32019	344.56244	913.39606	1067.11121	362.27567	842.29236	1038.05298	296.27139	899.26971	935.06281	381.24612	998.07043	872.07550	348.91016	934.64807	839.31348	365.49319	1052.26111	802.07874	366.10989	937.47205	1134.80273	-118.85252	952.34552	1088.41943	-124.50412	944.36139	1044.16406	-25.35598	1060.76404	1115.68884	-72.92191	1079.84729	1217.44153	-94.51763	1112.31213	1193.72302	-33.68201	1137.74988	1269.00500	-106.19860
10784	43.13200	845.93103	1421.77612	83.42060	915.29065	1360.04565	268.57309	887.71509	1349.11377	-104.24164	982.54803	1301.00464	74.73972	896.60004	1164.10291	344.77676	913.21979	1067.11865	362.31506	842.13318	1038.06689	296.30298	899.06812	935.02808	381.26663	997.87622	872.07489	348.96396	934.45209	839.30560	365.53433	1052.06299	802.08459	366.16568	937.23462	1134.69434	-118.75551	952.10266	1088.27002	-124.41604	944.13599	1044.09326	-25.34767	1060.72668	1115.21924	-72.93300	1080.16895	1216.86841	-94.52296	1112.55994	1193.06592	-33.68500	1138.31470	1268.18933	-106.26746
10785	43.13600	845.82397	1421.77234	83.46981	915.17767	1360.04993	268.63681	887.60260	1349.08362	-104.19325	982.41785	1300.97290	74.78999	896.33929	1164.05652	344.89282	913.04932	1067.11572	362.35455	841.97357	1038.08020	296.32336	898.87579	935.01868	381.29114	997.69006	872.07263	349.01694	934.26227	839.29572	365.56644	1051.86609	802.07465	366.22342	937.00427	1134.58398	-118.66503	951.85431	1088.12830	-124.35186	943.94049	1044.02686	-25.31521	1060.67114	1114.73987	-72.93767	1080.47583	1216.31348	-94.53492	1112.80933	1192.40820	-33.71461	1138.87146	1267.31104	-106.31693
10786	43.14000	845.72174	1421.77759	83.52586	915.07544	1360.04761	268.68454	887.49249	1349.04456	-104.14530	982.29730	1300.93884	74.83920	896.27991	1163.95435	344.99911	912.88220	1067.10876	362.39819	841.82227	1038.09070	296.34412	898.69092	935.01495	381.31555	997.51495	872.06354	349.06537	934.08173	839.27533	365.58325	1051.67004	802.06677	366.28760	936.76996	1134.46814	-118.58829	951.61682	1087.96765	-124.27883	943.76343	1043.94189	-25.28109	1060.60791	1114.25671	-72.94633	1080.81042	1215.74719	-94.56447	1113.03333	1191.74011	-33.73577	1139.44604	1266.48352	-106.39141
10787	43.14400	845.62329	1421.77283	83.57338	914.97968	1360.04736	268.73431	887.38477	1349.00647	-104.10283	982.17413	1300.91382	74.87641	895.93622	1164.11816	344.95428	912.72290	1067.11047	362.43469	841.67834	1038.10303	296.36719	898.51337	935.01355	381.33408	997.33734	872.05481	349.10532	933.90588	839.26050	365.59586	1051.47388	802.05194	366.34583	936.52191	1134.35034	-118.52371	951.37799	1087.81470	-124.21861	943.59186	1043.86121	-25.25021	1060.55212	1113.77454	-72.96893	1081.17346	1215.12195	-94.58017	1113.30640	1190.97998	-33.80634	1140.01636	1265.61670	-106.48623
10788	43.14800	845.52789	1421.76428	83.62151	914.88251	1360.04358	268.78052	887.28033	1348.96912	-104.05997	982.06287	1300.88245	74.91396	895.75000	1164.16785	344.96201	912.56396	1067.10144	362.47131	841.53510	1038.10474	296.40198	898.33893	935.01849	381.35098	997.15851	872.04456	349.14056	933.72491	839.25031	365.60007	1051.27820	802.03339	366.39832	936.27020	1134.23535	-118.46656	951.12726	1087.65967	-124.16251	943.41907	1043.77588	-25.20996	1060.49890	1113.28296	-73.00207	1081.51208	1214.51208	-94.59979	1113.59814	1190.17651	-33.88529	1140.60144	1264.72449	-106.52536
